<svg width="1200" height="420" viewBox="0 0 1200 420" xmlns="http://www.w3.org/2000/svg">
  <defs>
    <linearGradient id="purpleGrad" x1="0" y1="0" x2="1" y2="1">
      <stop offset="0%" stop-color="#8B3DFF"/>
      <stop offset="55%" stop-color="#5B2BEF"/>
      <stop offset="100%" stop-color="#071848"/>
    </linearGradient>
  </defs>

  <!-- Icon P -->
  <path d="M155 85 H270 C350 85 395 130 395 200 C395 270 350 315 270 315 H235 V360 H155 Z"
        fill="url(#purpleGrad)"/>

  <!-- Microphone cutout style -->
  <rect x="220" y="145" width="58" height="150" rx="28" fill="#ffffff"/>
  <rect x="240" y="290" width="18" height="55" fill="#071848"/>
  <ellipse cx="249" cy="350" rx="70" ry="14" fill="#071848"/>

  <!-- Mic lines -->
  <rect x="205" y="195" width="70" height="12" rx="6" fill="#ffffff"/>
  <rect x="205" y="220" width="70" height="12" rx="6" fill="#ffffff"/>
  <rect x="205" y="245" width="70" height="12" rx="6" fill="#ffffff"/>

  <!-- Sound waves left -->
  <path d="M100 160 C65 205 65 255 100 300" fill="none" stroke="#6B35F5" stroke-width="12" stroke-linecap="round"/>
  <path d="M125 180 C100 210 100 250 125 280" fill="none" stroke="#6B35F5" stroke-width="12" stroke-linecap="round"/>
  <path d="M150 205 C137 225 137 240 150 260" fill="none" stroke="#6B35F5" stroke-width="12" stroke-linecap="round"/>

  <!-- Sound waves right -->
  <path d="M425 160 C460 205 460 255 425 300" fill="none" stroke="#6B35F5" stroke-width="12" stroke-linecap="round"/>
  <path d="M400 180 C425 210 425 250 400 280" fill="none" stroke="#6B35F5" stroke-width="12" stroke-linecap="round"/>
  <path d="M375 205 C388 225 388 240 375 260" fill="none" stroke="#6B35F5" stroke-width="12" stroke-linecap="round"/>

  <!-- Brand name -->
  <text x="500" y="215" font-family="Arial, Helvetica, sans-serif" font-size="118" font-weight="800" fill="#071848">
    Podo
  </text>
  <text x="820" y="215" font-family="Arial, Helvetica, sans-serif" font-size="118" font-weight="800" fill="#6B35F5">
    Bot
  </text>

  <!-- Wave line -->
  <line x1="510" y1="270" x2="760" y2="270" stroke="#6B35F5" stroke-width="5" stroke-linecap="round"/>
  <line x1="880" y1="270" x2="1110" y2="270" stroke="#6B35F5" stroke-width="5" stroke-linecap="round"/>

  <rect x="785" y="248" width="8" height="44" rx="4" fill="#6B35F5"/>
  <rect x="805" y="235" width="8" height="70" rx="4" fill="#6B35F5"/>
  <rect x="825" y="220" width="8" height="100" rx="4" fill="#6B35F5"/>
  <rect x="845" y="235" width="8" height="70" rx="4" fill="#6B35F5"/>
  <rect x="865" y="248" width="8" height="44" rx="4" fill="#6B35F5"/>

  <!-- Tagline -->
  <text x="510" y="345" font-family="Arial, Helvetica, sans-serif" font-size="30" font-weight="600"
        letter-spacing="5" textLength="600" lengthAdjust="spacingAndGlyphs" fill="#071848">
    PREMIUM PODCAST OPERATIONS
  </text>
</svg>
